HIERARCHY
ROOT Hips
{
	OFFSET 0.000000 0.000000 0.000000
	CHANNELS 6 Xposition Yposition Zposition Zrotation Yrotation Xrotation 
	JOINT LHipJoint
	{
		OFFSET 0.000000 0.000000 0.000000
		CHANNELS 3 Zrotation Yrotation Xrotation
		JOINT LeftUpLeg
		{
			OFFSET 1.363060 -1.794630 0.839290
			CHANNELS 3 Zrotation Yrotation Xrotation
			JOINT LeftLeg
			{
				OFFSET 2.448110 -6.726130 0.000000
				CHANNELS 3 Zrotation Yrotation Xrotation
				JOINT LeftFoot
				{
					OFFSET 2.562200 -7.039590 0.000000
					CHANNELS 3 Zrotation Yrotation Xrotation
					JOINT LeftToeBase
					{
						OFFSET 0.157640 -0.433110 2.322550
						CHANNELS 3 Zrotation Yrotation Xrotation
						End Site
						{
							OFFSET 0.000000 0.000000 0.000000
						}
					}
				}
			}
		}
	}
	JOINT RHipJoint
	{
		OFFSET 0.000000 0.000000 0.000000
		CHANNELS 3 Zrotation Yrotation Xrotation
		JOINT RightUpLeg
		{
			OFFSET -1.305520 -1.794630 0.839290
			CHANNELS 3 Zrotation Yrotation Xrotation
			JOINT RightLeg
			{
				OFFSET -2.542530 -6.985550 0.000000
				CHANNELS 3 Zrotation Yrotation Xrotation
				JOINT RightFoot
				{
					OFFSET -2.568260 -7.056230 0.000000
					CHANNELS 3 Zrotation Yrotation Xrotation
					JOINT RightToeBase
					{
						OFFSET -0.164730 -0.452590 2.363150
						CHANNELS 3 Zrotation Yrotation Xrotation
						End Site
						{
							OFFSET 0.000000 0.000000 0.000000
						}
					}
				}
			}
		}
	}
	JOINT LowerBack
	{
		OFFSET 0.000000 0.000000 0.000000
		CHANNELS 3 Zrotation Yrotation Xrotation
		JOINT Spine
		{
			OFFSET 0.028270 2.035590 -0.193380
			CHANNELS 3 Zrotation Yrotation Xrotation
			JOINT Spine1
			{
				OFFSET 0.056720 2.048850 -0.042750
				CHANNELS 3 Zrotation Yrotation Xrotation
				JOINT Neck
				{
					OFFSET 0.000000 0.000000 0.000000
					CHANNELS 3 Zrotation Yrotation Xrotation
					JOINT Neck1
					{
						OFFSET -0.054170 1.746240 0.172020
						CHANNELS 3 Zrotation Yrotation Xrotation
						JOINT Head
						{
							OFFSET 0.104070 1.761360 -0.123970
							CHANNELS 3 Zrotation Yrotation Xrotation
							End Site
							{
								OFFSET 0.000000 0.000000 0.000000
							}
						}
					}
				}
				JOINT LeftShoulder
				{
					OFFSET 0.000000 0.000000 0.000000
					CHANNELS 3 Zrotation Yrotation Xrotation
					JOINT LeftArm
					{
						OFFSET 3.362410 1.200890 -0.311210
						CHANNELS 3 Zrotation Yrotation Xrotation
						JOINT LeftForeArm
						{
							OFFSET 4.983000 -0.000000 -0.000000
							CHANNELS 3 Zrotation Yrotation Xrotation
							JOINT LeftHand
							{
								OFFSET 3.483560 -0.000000 -0.000000
								CHANNELS 3 Zrotation Yrotation Xrotation
								JOINT LeftFingerBase
								{
									OFFSET 0.000000 0.000000 0.000000
									CHANNELS 3 Zrotation Yrotation Xrotation
									JOINT LeftHandIndex1
									{
										OFFSET 0.715260 -0.000000 -0.000000
										CHANNELS 3 Zrotation Yrotation Xrotation
										End Site
										{
											OFFSET 0.000000 0.000000 0.000000
										}
									}
								}
								JOINT LThumb
								{
									OFFSET 0.000000 0.000000 0.000000
									CHANNELS 3 Zrotation Yrotation Xrotation
									End Site
									{
										OFFSET 0.000000 0.000000 0.000000
									}
								}
							}
						}
					}
				}
				JOINT RightShoulder
				{
					OFFSET 0.000000 0.000000 0.000000
					CHANNELS 3 Zrotation Yrotation Xrotation
					JOINT RightArm
					{
						OFFSET -3.136600 1.374050 -0.404650
						CHANNELS 3 Zrotation Yrotation Xrotation
						JOINT RightForeArm
						{
							OFFSET -5.241900 -0.000000 -0.000000
							CHANNELS 3 Zrotation Yrotation Xrotation
							JOINT RightHand
							{
								OFFSET -3.444170 -0.000000 -0.000000
								CHANNELS 3 Zrotation Yrotation Xrotation
								JOINT RightFingerBase
								{
									OFFSET 0.000000 0.000000 0.000000
									CHANNELS 3 Zrotation Yrotation Xrotation
									JOINT RightHandIndex1
									{
										OFFSET -0.622530 -0.000000 -0.000000
										CHANNELS 3 Zrotation Yrotation Xrotation
										End Site
										{
											OFFSET 0.000000 0.000000 0.000000
										}
									}
								}
								JOINT RThumb
								{
									OFFSET 0.000000 0.000000 0.000000
									CHANNELS 3 Zrotation Yrotation Xrotation
									End Site
									{
										OFFSET 0.000000 0.000000 0.000000
									}
								}
							}
						}
					}
				}
			}
		}
	}
}
MOTION
Frames: 11
Frame Time: 0.008333
1.804804 17.102133 -1.486908 21.561697 -89.648244 -25.037325 -3.547465 -5.490402 -2.711705 0.384814 17.821547 -32.678092 9.733722 16.705424 53.908132 6.206814 -1.777937 24.542031 0.810600 -5.745700 -16.048300 3.053200 5.073616 -3.046192 -2.275722 -16.601945 -31.056735 -9.616411 -16.159662 52.488801 -4.012318 0.327363 18.414720 -0.805500 5.728000 -15.997100 -2.081916 0.344710 14.220750 0.443100 0.517143 -2.417148 0.997226 0.007817 0.345360 -5.183559 -2.376471 -10.763872 7.724775 -3.838380 9.138271 3.517500 -1.509800 2.894600 -5.271716 -12.525806 1.076168 -38.645436 -50.387520 16.125791 65.185762 -38.523124 -51.661576 2.590186 -2.609045 27.110935 -10.952139 -15.992477 3.739900 -7.125000 0.000000 0.000000 -27.466300 15.661100 21.725800 7.719185 12.268477 3.310815 36.293598 44.228543 11.390269 -74.544281 45.105685 -61.475500 0.367829 5.770221 8.332791 -3.520683 -47.895069 2.537700 7.125000 0.000000 0.000000 73.170100 -72.651800 -55.091300 
1.804685 17.094951 -1.487387 19.129126 -89.667873 -22.605290 -3.537664 -5.473290 -2.716812 0.414847 17.831514 -32.706295 9.753669 16.718240 53.956572 6.206448 -1.784554 24.536113 0.814600 -5.759300 -16.087700 3.049300 5.087537 -3.042802 -2.263289 -16.583898 -31.042499 -9.626845 -16.162738 52.550932 -4.068793 0.449328 18.377073 -0.785400 5.657700 -15.794400 -2.029440 0.346272 14.223013 0.440143 0.522358 -2.420304 0.936523 0.012580 0.365651 -5.090802 -2.368845 -10.864587 7.713155 -3.831662 9.197735 3.489300 -1.503300 2.960500 -5.272551 -12.517876 1.056991 -38.617490 -50.319426 16.092706 65.234098 -38.583866 -51.768268 2.606013 -2.626314 27.290647 -11.388744 -15.912282 3.842400 -7.125000 0.000000 0.000000 -27.748300 15.715800 21.979800 7.723779 12.277199 3.317716 36.336487 44.221160 11.432437 -74.409695 45.060937 -61.332426 0.360049 5.772144 8.368628 -3.264503 -47.823639 2.318400 7.125000 0.000000 0.000000 73.068300 -72.536100 -54.859700 
1.803966 17.097345 -1.487985 18.618844 -89.656191 -22.095764 -3.542762 -5.471062 -2.711437 0.419024 17.828148 -32.697622 9.736448 16.713392 53.930003 6.245171 -1.855000 24.580605 0.809800 -5.742900 -16.040200 3.048578 5.089917 -3.044495 -2.254345 -16.594010 -31.048972 -9.626387 -16.158542 52.533434 -4.028891 0.368884 18.384011 -0.807800 5.735800 -16.019800 -2.020746 0.349493 14.235247 0.440270 0.525714 -2.422410 0.934594 0.015910 0.367172 -5.099915 -2.339889 -10.876257 7.746617 -3.799340 9.200757 3.513700 -1.486400 2.964800 -5.280872 -12.505538 1.075177 -38.673811 -50.281848 16.093315 65.309769 -38.644718 -51.885891 2.606988 -2.635449 27.443832 -11.623676 -15.802359 3.878500 -7.125000 0.000000 0.000000 -27.907900 15.804400 22.083500 7.727358 12.262347 3.321822 36.386996 44.153606 11.472305 -74.353924 45.070417 -61.277814 0.341492 5.780469 8.339565 -3.029745 -47.875025 2.117100 7.125000 0.000000 0.000000 73.356100 -72.460900 -55.040300 
1.801812 17.100816 -1.489062 18.369907 -89.646128 -21.855168 -3.547281 -5.470378 -2.707038 0.425721 17.830340 -32.669776 9.714519 16.709658 53.912334 6.329693 -2.012591 24.614607 0.789300 -5.671400 -15.833900 3.047984 5.090692 -3.050630 -2.254265 -16.592475 -31.038488 -9.620549 -16.156337 52.508058 -4.005472 0.318471 18.395673 -0.819400 5.775900 -16.135700 -2.003935 0.376102 14.213435 0.438850 0.561614 -2.409839 0.940752 0.034567 0.422779 -5.168663 -2.356785 -10.889930 7.794591 -3.826675 9.169643 3.563500 -1.498600 2.946600 -5.293689 -12.503362 1.101490 -38.745943 -50.321729 16.205115 65.259548 -38.624777 -51.783852 2.610562 -2.629162 27.505923 -11.479816 -15.915590 3.873000 -7.125000 0.000000 0.000000 -27.803800 15.697500 22.050300 7.730108 12.249616 3.308956 36.320522 44.076921 11.409766 -74.276040 45.080952 -61.223419 0.354202 5.796749 8.263661 -3.194025 -48.045705 2.269700 7.125000 0.000000 0.000000 73.858300 -72.575400 -55.647200 
1.800017 17.100936 -1.490259 17.373114 -89.659804 -20.877145 -3.547662 -5.460544 -2.704480 0.449045 17.847378 -32.641489 9.699940 16.708266 53.895973 6.387416 -2.118574 24.654521 0.773800 -5.616800 -15.676600 3.053654 5.094232 -3.049961 -2.251191 -16.568888 -30.997086 -9.616604 -16.158643 52.500582 -3.997472 0.300024 18.355582 -0.831100 5.816100 -16.251800 -1.976857 0.399612 14.207362 0.435468 0.594173 -2.396618 0.927900 0.050361 0.478458 -5.209679 -2.404682 -10.923017 7.836442 -3.898383 9.162447 3.605700 -1.532300 2.954200 -5.307977 -12.506652 1.106817 -38.771511 -50.334906 16.321466 65.078288 -38.566907 -51.520875 2.624789 -2.618212 27.465755 -11.225359 -16.156434 3.871600 -7.125000 0.000000 0.000000 -27.616400 15.476600 22.009200 7.728979 12.242941 3.306708 36.289737 44.054861 11.376927 -74.237772 45.082426 -61.195894 0.366594 5.803274 8.240596 -3.322479 -48.128759 2.387500 7.125000 0.000000 0.000000 74.081000 -72.649400 -55.944300 
1.798700 17.103090 -1.489661 20.545379 -89.613011 -24.039149 -3.546413 -5.483034 -2.707372 0.395113 17.846450 -32.644841 9.691971 16.700804 53.888706 6.389863 -2.124433 24.645534 0.768600 -5.598100 -15.622500 3.060591 5.072277 -3.044898 -2.300923 -16.562489 -30.977013 -9.616893 -16.164335 52.478770 -3.973629 0.245719 18.346549 -0.843400 5.857900 -16.372800 -1.999960 0.387319 14.192731 0.428306 0.578990 -2.395349 0.914247 0.038626 0.502547 -5.206803 -2.435042 -10.960853 7.843823 -3.941857 9.188718 3.613500 -1.552800 2.984300 -5.318878 -12.509892 1.088478 -38.743359 -50.303178 16.361320 64.893077 -38.519632 -51.288241 2.642010 -2.619021 27.386298 -11.138613 -16.278310 3.883200 -7.125000 0.000000 0.000000 -27.553400 15.367500 22.018900 7.724779 12.236981 3.323805 36.364247 44.069526 11.433229 -74.220475 45.075366 -61.167234 0.355947 5.794142 8.239857 -3.184028 -47.995849 2.263200 7.125000 0.000000 0.000000 73.698800 -72.559700 -55.478800 
1.797503 17.105604 -1.488703 24.491015 -89.527569 -27.957273 -3.554501 -5.520400 -2.712054 0.313524 17.816888 -32.662980 9.686020 16.693844 53.881537 6.357746 -2.066945 24.622265 0.774200 -5.618100 -15.680100 3.059130 5.045627 -3.044069 -2.376989 -16.546577 -30.971915 -9.612577 -16.165513 52.445564 -3.973843 0.237255 18.407022 -0.829800 5.811700 -16.239100 -2.048210 0.372645 14.164674 0.422457 0.559277 -2.399487 0.906131 0.025650 0.512192 -5.162514 -2.451184 -10.998512 7.824647 -3.961542 9.208847 3.587900 -1.561600 3.007400 -5.321276 -12.509480 1.077471 -38.729569 -50.282010 16.402907 64.865595 -38.520524 -51.249734 2.646604 -2.635919 27.334650 -11.266455 -16.142575 3.882300 -7.125000 0.000000 0.000000 -27.660000 15.500300 22.038200 7.727536 12.238016 3.330313 36.412654 44.058877 11.510665 -74.076703 45.033001 -61.008774 0.373723 5.781332 8.182283 -3.313322 -47.773466 2.379400 7.125000 0.000000 0.000000 72.910800 -72.553100 -54.732500 
1.798102 17.105244 -1.488823 23.035901 -89.519706 -26.511966 -3.563857 -5.512107 -2.707728 0.336207 17.788411 -32.645714 9.681040 16.695816 53.855432 6.331036 -2.011887 24.647092 0.771200 -5.607500 -15.649800 3.066428 5.056247 -3.041420 -2.376184 -16.503936 -30.944653 -9.613708 -16.165584 52.451682 -3.952704 0.198458 18.409900 -0.814800 5.760200 -16.090300 -2.014357 0.380818 14.218369 0.419250 0.568006 -2.405709 0.878341 0.037276 0.449662 -5.199728 -2.450706 -10.914144 7.888938 -3.978131 9.170516 3.645300 -1.571000 2.971000 -5.334905 -12.511656 1.097702 -38.788984 -50.256095 16.503141 64.896510 -38.551312 -51.263058 2.637195 -2.653123 27.222158 -11.336944 -15.885094 3.828300 -7.125000 0.000000 0.000000 -27.748500 15.754400 21.953000 7.724245 12.231869 3.333425 36.435743 44.020339 11.586069 -73.919229 44.989137 -60.841606 0.405724 5.780882 8.088486 -3.574048 -47.741586 2.620100 7.125000 0.000000 0.000000 72.686300 -72.653200 -54.640700 
1.798461 17.105963 -1.489182 21.667774 -89.519138 -25.165519 -3.573369 -5.500711 -2.700293 0.361024 17.774931 -32.617098 9.675907 16.697187 53.826589 6.304351 -1.955383 24.675599 0.756700 -5.555800 -15.500800 3.075156 5.062621 -3.037847 -2.360830 -16.484842 -30.920438 -9.629581 -16.171903 52.467789 -3.850982 0.003417 18.331988 -0.848100 5.873700 -16.418500 -1.971599 0.390529 14.284625 0.413752 0.579074 -2.409834 0.839779 0.050483 0.381329 -5.262990 -2.447384 -10.800770 7.969185 -3.994434 9.123422 3.723300 -1.581100 2.922300 -5.355064 -12.516203 1.120333 -38.851429 -50.216600 16.583259 64.879901 -38.578116 -51.232177 2.636638 -2.656806 27.072152 -11.391527 -15.802046 3.817700 -7.125000 0.000000 0.000000 -27.795900 15.839100 21.942700 7.717735 12.221567 3.337914 36.446375 43.972658 11.619538 -73.838127 44.974446 -60.762359 0.412212 5.791367 8.020978 -3.593576 -47.846495 2.648600 7.125000 0.000000 0.000000 73.032600 -72.695200 -55.013700 
1.796905 17.108117 -1.488105 22.452144 -89.480906 -25.949715 -3.584013 -5.506829 -2.701124 0.334836 17.747855 -32.600185 9.684593 16.703735 53.813585 6.203364 -1.760764 24.644415 0.769900 -5.602700 -15.636000 3.072253 5.052632 -3.038703 -2.380690 -16.514005 -30.915379 -9.642035 -16.174183 52.468916 -3.798216 -0.101835 18.269428 -0.890800 6.015900 -16.830700 -1.983214 0.379211 14.257629 0.411777 0.563619 -2.403148 0.814742 0.042535 0.415325 -5.175268 -2.429515 -10.780830 7.955052 -3.977771 9.104212 3.690400 -1.572600 2.892200 -5.360760 -12.504008 1.123599 -38.849578 -50.150765 16.589809 64.850633 -38.615153 -51.212159 2.637018 -2.655429 27.048675 -11.381317 -15.814202 3.817900 -7.125000 0.000000 0.000000 -27.787400 15.828600 21.941200 7.728402 12.217347 3.342918 36.459996 43.951661 11.652135 -73.810572 44.982009 -60.728331 0.407020 5.795624 8.007634 -3.507251 -47.880200 2.576500 7.125000 0.000000 0.000000 73.188400 -72.672300 -55.132600 
1.795109 17.109314 -1.486190 22.296308 -89.461695 -25.778119 -3.589947 -5.509219 -2.705970 0.321615 17.717841 -32.596381 9.690028 16.712168 53.812819 6.159421 -1.675680 24.590910 0.803900 -5.722400 -15.981000 3.070858 5.052622 -3.038783 -2.398922 -16.521439 -30.899766 -9.633388 -16.166614 52.448567 -3.833429 -0.038823 18.285688 -0.877400 5.971700 -16.702400 -1.980538 0.347358 14.204481 0.410887 0.523131 -2.395915 0.776600 0.022240 0.439949 -5.058364 -2.400558 -10.694980 7.926628 -3.948965 9.058642 3.644300 -1.560000 2.821600 -5.367977 -12.496043 1.107176 -38.773938 -50.031661 16.537965 64.720475 -38.637509 -51.085664 2.637330 -2.646641 27.156911 -11.110865 -15.957556 3.786500 -7.125000 0.000000 0.000000 -27.601800 15.695200 21.842200 7.740884 12.216625 3.363169 36.511403 43.977835 11.770237 -73.807320 44.983903 -60.691986 0.397455 5.796310 7.970715 -3.348784 -47.889578 2.443200 7.125000 0.000000 0.000000 73.287800 -72.614900 -55.158200 
